<mxfile host="app.diagrams.net" modified="2023-05-05T12:49:52.534Z" agent="Mozilla/5.0 (Windows NT 10.0; Win64; x64) AppleWebKit/537.36 (KHTML, like Gecko) Chrome/105.0.0.0 Safari/537.36" etag="tuA5f3g414HuqKoTWH0Y" version="21.2.9" type="device">
  <diagram name="Page-1" id="EXDYoXQwBNhD-vgQgudx">
    <mxGraphModel dx="794" dy="1609" grid="1" gridSize="10" guides="1" tooltips="1" connect="1" arrows="1" fold="1" page="1" pageScale="1" pageWidth="850" pageHeight="1100" math="0" shadow="0">
      <root>
        <mxCell id="0" />
        <mxCell id="1" parent="0" />
        <mxCell id="AvmcMwS410a3SvqO8hcJ-1" value="" style="shape=document;whiteSpace=wrap;html=1;boundedLbl=1;fillColor=#f5f5f5;fontColor=#333333;strokeColor=#666666;" vertex="1" parent="1">
          <mxGeometry x="90" y="58" width="120" height="80" as="geometry" />
        </mxCell>
        <mxCell id="AvmcMwS410a3SvqO8hcJ-2" value="" style="shape=document;whiteSpace=wrap;html=1;boundedLbl=1;fillColor=#f5f5f5;fontColor=#333333;strokeColor=#666666;" vertex="1" parent="1">
          <mxGeometry x="100" y="68" width="120" height="80" as="geometry" />
        </mxCell>
        <mxCell id="AvmcMwS410a3SvqO8hcJ-15" style="edgeStyle=orthogonalEdgeStyle;rounded=0;orthogonalLoop=1;jettySize=auto;html=1;exitX=1;exitY=0.5;exitDx=0;exitDy=0;entryX=0;entryY=0.5;entryDx=0;entryDy=0;" edge="1" parent="1" source="AvmcMwS410a3SvqO8hcJ-3" target="AvmcMwS410a3SvqO8hcJ-4">
          <mxGeometry relative="1" as="geometry" />
        </mxCell>
        <mxCell id="AvmcMwS410a3SvqO8hcJ-19" style="edgeStyle=orthogonalEdgeStyle;rounded=0;orthogonalLoop=1;jettySize=auto;html=1;exitX=1;exitY=0.5;exitDx=0;exitDy=0;entryX=0;entryY=0.5;entryDx=0;entryDy=0;" edge="1" parent="1" source="AvmcMwS410a3SvqO8hcJ-3" target="AvmcMwS410a3SvqO8hcJ-6">
          <mxGeometry relative="1" as="geometry" />
        </mxCell>
        <mxCell id="AvmcMwS410a3SvqO8hcJ-3" value="&lt;b&gt;Landsat 5-8 C2 L2&lt;/b&gt;" style="shape=document;whiteSpace=wrap;html=1;boundedLbl=1;fillColor=#f5f5f5;fontColor=#333333;strokeColor=#666666;" vertex="1" parent="1">
          <mxGeometry x="110" y="78" width="120" height="80" as="geometry" />
        </mxCell>
        <mxCell id="AvmcMwS410a3SvqO8hcJ-11" style="edgeStyle=orthogonalEdgeStyle;rounded=0;orthogonalLoop=1;jettySize=auto;html=1;exitX=1;exitY=0.5;exitDx=0;exitDy=0;entryX=0;entryY=0.5;entryDx=0;entryDy=0;" edge="1" parent="1" source="AvmcMwS410a3SvqO8hcJ-4" target="AvmcMwS410a3SvqO8hcJ-7">
          <mxGeometry relative="1" as="geometry" />
        </mxCell>
        <mxCell id="AvmcMwS410a3SvqO8hcJ-16" style="edgeStyle=orthogonalEdgeStyle;rounded=0;orthogonalLoop=1;jettySize=auto;html=1;exitX=0.5;exitY=1;exitDx=0;exitDy=0;" edge="1" parent="1" source="AvmcMwS410a3SvqO8hcJ-4" target="AvmcMwS410a3SvqO8hcJ-5">
          <mxGeometry relative="1" as="geometry" />
        </mxCell>
        <mxCell id="AvmcMwS410a3SvqO8hcJ-4" value="Surface Reflectance" style="rounded=1;whiteSpace=wrap;html=1;fillColor=#f5f5f5;gradientColor=#b3b3b3;strokeColor=#666666;" vertex="1" parent="1">
          <mxGeometry x="280" y="-20" width="120" height="60" as="geometry" />
        </mxCell>
        <mxCell id="AvmcMwS410a3SvqO8hcJ-8" style="edgeStyle=orthogonalEdgeStyle;rounded=0;orthogonalLoop=1;jettySize=auto;html=1;exitX=1;exitY=0.5;exitDx=0;exitDy=0;" edge="1" parent="1" source="AvmcMwS410a3SvqO8hcJ-5" target="AvmcMwS410a3SvqO8hcJ-7">
          <mxGeometry relative="1" as="geometry" />
        </mxCell>
        <mxCell id="AvmcMwS410a3SvqO8hcJ-5" value="Spectral Indices&lt;br&gt;(NDSI, NDWI, etc.)" style="rounded=1;whiteSpace=wrap;html=1;fillColor=#f5f5f5;gradientColor=#b3b3b3;strokeColor=#666666;" vertex="1" parent="1">
          <mxGeometry x="280" y="80" width="120" height="60" as="geometry" />
        </mxCell>
        <mxCell id="AvmcMwS410a3SvqO8hcJ-10" style="edgeStyle=orthogonalEdgeStyle;rounded=0;orthogonalLoop=1;jettySize=auto;html=1;exitX=1;exitY=0.5;exitDx=0;exitDy=0;entryX=0;entryY=0.5;entryDx=0;entryDy=0;" edge="1" parent="1" source="AvmcMwS410a3SvqO8hcJ-6" target="AvmcMwS410a3SvqO8hcJ-7">
          <mxGeometry relative="1" as="geometry" />
        </mxCell>
        <mxCell id="AvmcMwS410a3SvqO8hcJ-6" value="QA Pixel Band" style="rounded=1;whiteSpace=wrap;html=1;fillColor=#f5f5f5;gradientColor=#b3b3b3;strokeColor=#666666;" vertex="1" parent="1">
          <mxGeometry x="280" y="180" width="120" height="60" as="geometry" />
        </mxCell>
        <mxCell id="AvmcMwS410a3SvqO8hcJ-13" style="edgeStyle=orthogonalEdgeStyle;rounded=0;orthogonalLoop=1;jettySize=auto;html=1;exitX=1;exitY=0.5;exitDx=0;exitDy=0;entryX=0;entryY=0.5;entryDx=0;entryDy=0;" edge="1" parent="1" source="AvmcMwS410a3SvqO8hcJ-7" target="AvmcMwS410a3SvqO8hcJ-12">
          <mxGeometry relative="1" as="geometry" />
        </mxCell>
        <mxCell id="AvmcMwS410a3SvqO8hcJ-7" value="Water/ Cloud/ Shadow Mask" style="rounded=1;whiteSpace=wrap;html=1;fillColor=#f5f5f5;gradientColor=#b3b3b3;strokeColor=#666666;" vertex="1" parent="1">
          <mxGeometry x="450" y="80" width="120" height="60" as="geometry" />
        </mxCell>
        <mxCell id="AvmcMwS410a3SvqO8hcJ-23" style="edgeStyle=orthogonalEdgeStyle;rounded=0;orthogonalLoop=1;jettySize=auto;html=1;exitX=1;exitY=0.5;exitDx=0;exitDy=0;entryX=0;entryY=0.5;entryDx=0;entryDy=0;" edge="1" parent="1" source="AvmcMwS410a3SvqO8hcJ-12" target="AvmcMwS410a3SvqO8hcJ-22">
          <mxGeometry relative="1" as="geometry" />
        </mxCell>
        <mxCell id="AvmcMwS410a3SvqO8hcJ-12" value="Snow Classification" style="rounded=1;whiteSpace=wrap;html=1;fillColor=#f5f5f5;gradientColor=#b3b3b3;strokeColor=#666666;" vertex="1" parent="1">
          <mxGeometry x="610" y="80" width="120" height="60" as="geometry" />
        </mxCell>
        <mxCell id="AvmcMwS410a3SvqO8hcJ-21" style="edgeStyle=orthogonalEdgeStyle;rounded=0;orthogonalLoop=1;jettySize=auto;html=1;exitX=0.5;exitY=0;exitDx=0;exitDy=0;entryX=0.5;entryY=1;entryDx=0;entryDy=0;" edge="1" parent="1" source="AvmcMwS410a3SvqO8hcJ-20" target="AvmcMwS410a3SvqO8hcJ-12">
          <mxGeometry relative="1" as="geometry" />
        </mxCell>
        <mxCell id="AvmcMwS410a3SvqO8hcJ-20" value="Validation Data" style="rounded=1;whiteSpace=wrap;html=1;fillColor=#dae8fc;gradientColor=#7ea6e0;strokeColor=#6c8ebf;" vertex="1" parent="1">
          <mxGeometry x="610" y="180" width="120" height="60" as="geometry" />
        </mxCell>
        <mxCell id="AvmcMwS410a3SvqO8hcJ-22" value="Accuracy Assessment" style="rounded=1;whiteSpace=wrap;html=1;fillColor=#dae8fc;gradientColor=#7ea6e0;strokeColor=#6c8ebf;" vertex="1" parent="1">
          <mxGeometry x="770" y="80" width="120" height="60" as="geometry" />
        </mxCell>
      </root>
    </mxGraphModel>
  </diagram>
</mxfile>
